# xmcd
#
# Track frame offsets:
#	150
#	14416
#	27621
#	59777
#	85479
#
# Disc length: 1529 seconds
#
# Revision: 0
# Processed by: cddbd v1.5.1PL2 Copyright (c) Steve Scherf et al.
# Submitted via: audiograbber 1.83.01
#
DISCID=4405f705
DTITLE=Goleo VI - All Together (Feat.Atomic Kitten)
DYEAR=2006
DGENRE=Dance
TTITLE0=All Together (Radio Edit)
TTITLE1=All Together (Corenell Radio Remix)
TTITLE2=All Together (Corenell Club Remix)
TTITLE3=Bamboo (Goleo's Dance Mix)
TTITLE4=Daten-CD
EXTD=
EXTT0=
EXTT1=
EXTT2=
EXTT3=
EXTT4=
PLAYORDER=
